<svg xmlns="http://www.w3.org/2000/svg"  viewBox="0 0 24 24" width="48px" height="48px" baseProfile="basic"><linearGradient id="mnJK6w6ixKKlDIHAm60Kka" x1="2.525" x2="20.061" y1="4.232" y2="21.768" gradientUnits="userSpaceOnUse"><stop offset="0" stop-color="#fff" stop-opacity=".6"/><stop offset="1" stop-color="#fff" stop-opacity=".3"/></linearGradient><path fill="url(#mnJK6w6ixKKlDIHAm60Kka)" d="M20,7h-2V6c0-1.657-1.343-3-3-3H5C3.343,3,2,4.343,2,6v12c0,1.657,1.343,3,3,3h15 c1.105,0,2-0.895,2-2V9C22,7.895,21.105,7,20,7z"/><linearGradient id="mnJK6w6ixKKlDIHAm60Kkb" x1="2" x2="22" y1="12" y2="12" gradientUnits="userSpaceOnUse"><stop offset="0" stop-color="#fff" stop-opacity=".6"/><stop offset=".493" stop-color="#fff" stop-opacity="0"/><stop offset=".997" stop-color="#fff" stop-opacity=".3"/></linearGradient><path fill="url(#mnJK6w6ixKKlDIHAm60Kkb)" d="M15,3.5c1.379,0,2.5,1.121,2.5,2.5v1v0.5 H18h2c0.827,0,1.5,0.673,1.5,1.5v10c0,0.827-0.673,1.5-1.5,1.5H5c-1.379,0-2.5-1.122-2.5-2.5V6c0-1.379,1.121-2.5,2.5-2.5H15 M15,3 H5C3.343,3,2,4.343,2,6v12c0,1.657,1.343,3,3,3h15c1.105,0,2-0.895,2-2V9c0-1.105-0.895-2-2-2h-2V6C18,4.343,16.657,3,15,3L15,3z"/><linearGradient id="mnJK6w6ixKKlDIHAm60Kkc" x1="7.293" x2="12.707" y1="10.293" y2="15.707" gradientUnits="userSpaceOnUse"><stop offset="0" stop-color="#fff" stop-opacity=".7"/><stop offset=".519" stop-color="#fff" stop-opacity=".45"/><stop offset="1" stop-color="#fff" stop-opacity=".55"/></linearGradient><path fill="url(#mnJK6w6ixKKlDIHAm60Kkc)" d="M14,14H6c-0.552,0-1-0.448-1-1v0	c0-0.552,0.448-1,1-1h8c0.552,0,1,0.448,1,1v0C15,13.552,14.552,14,14,14z"/><linearGradient id="mnJK6w6ixKKlDIHAm60Kkd" x1="7.293" x2="12.707" y1="14.293" y2="19.707" gradientUnits="userSpaceOnUse"><stop offset="0" stop-color="#fff" stop-opacity=".7"/><stop offset=".519" stop-color="#fff" stop-opacity=".45"/><stop offset="1" stop-color="#fff" stop-opacity=".55"/></linearGradient><path fill="url(#mnJK6w6ixKKlDIHAm60Kkd)" d="M14,18H6c-0.552,0-1-0.448-1-1v0	c0-0.552,0.448-1,1-1h8c0.552,0,1,0.448,1,1v0C15,17.552,14.552,18,14,18z"/><linearGradient id="mnJK6w6ixKKlDIHAm60Kke" x1="7.189" x2="12.811" y1="5.689" y2="11.311" gradientUnits="userSpaceOnUse"><stop offset="0" stop-color="#fff" stop-opacity=".7"/><stop offset=".519" stop-color="#fff" stop-opacity=".45"/><stop offset="1" stop-color="#fff" stop-opacity=".55"/></linearGradient><path fill="url(#mnJK6w6ixKKlDIHAm60Kke)" d="M13.5,7c-0.386,0-6.614,0-7,0	C5.672,7,5,7.672,5,8.5S5.672,10,6.5,10c0.386,0,6.614,0,7,0c0.828,0,1.5-0.672,1.5-1.5S14.328,7,13.5,7z"/><linearGradient id="mnJK6w6ixKKlDIHAm60Kkf" x1="15.5" x2="23.914" y1="9.5" y2="17.914" gradientUnits="userSpaceOnUse"><stop offset="0" stop-color="#fff" stop-opacity=".7"/><stop offset=".519" stop-color="#fff" stop-opacity=".45"/><stop offset="1" stop-color="#fff" stop-opacity=".55"/></linearGradient><path fill="url(#mnJK6w6ixKKlDIHAm60Kkf)" d="M20,7h-2v12c0,1.105,0.895,2,2,2h0	c1.105,0,2-0.895,2-2V9C22,7.895,21.105,7,20,7z"/></svg>