<svg xmlns="http://www.w3.org/2000/svg"  viewBox="0 0 24 24" width="48px" height="48px" fill-rule="evenodd" clip-rule="evenodd" baseProfile="basic"><linearGradient id="k-zBvEZ_eTwJORavdp85ga" x1="3.879" x2="20.121" y1="3.879" y2="20.121" gradientUnits="userSpaceOnUse"><stop offset="0" stop-color="#fff" stop-opacity=".6"/><stop offset="1" stop-color="#fff" stop-opacity=".3"/></linearGradient><path fill="url(#k-zBvEZ_eTwJORavdp85ga)" d="M18,21H6c-1.657,0-3-1.343-3-3V6c0-1.657,1.343-3,3-3h12c1.657,0,3,1.343,3,3v12 C21,19.657,19.657,21,18,21z"/><linearGradient id="k-zBvEZ_eTwJORavdp85gb" x1="3.879" x2="20.121" y1="3.879" y2="20.121" gradientUnits="userSpaceOnUse"><stop offset="0" stop-color="#fff" stop-opacity=".6"/><stop offset=".493" stop-color="#fff" stop-opacity="0"/><stop offset=".997" stop-color="#fff" stop-opacity=".3"/></linearGradient><path fill="url(#k-zBvEZ_eTwJORavdp85gb)" d="M18,3.5c1.379,0,2.5,1.122,2.5,2.5v12 c0,1.379-1.121,2.5-2.5,2.5H6c-1.379,0-2.5-1.121-2.5-2.5V6c0-1.378,1.121-2.5,2.5-2.5H18 M18,3H6C4.343,3,3,4.343,3,6v12 c0,1.657,1.343,3,3,3h12c1.657,0,3-1.343,3-3V6C21,4.343,19.657,3,18,3L18,3z"/><linearGradient id="k-zBvEZ_eTwJORavdp85gc" x1="8.567" x2="15.433" y1="7.866" y2="14.733" gradientUnits="userSpaceOnUse"><stop offset="0" stop-color="#fff" stop-opacity=".7"/><stop offset=".519" stop-color="#fff" stop-opacity=".45"/><stop offset="1" stop-color="#fff" stop-opacity=".55"/></linearGradient><path fill="url(#k-zBvEZ_eTwJORavdp85gc)" fill-rule="evenodd" d="M17.5,11.3c0-1.823-1.477-3.3-3.3-3.3c-0.849,0-1.615,0.33-2.2,0.856C11.415,8.33,10.649,8,9.8,8c-1.823,0-3.3,1.477-3.3,3.3	c0,0.932,0.389,1.77,1.01,2.37c0.006,0.006,3.299,3.306,3.299,3.306c0.657,0.657,1.724,0.657,2.381,0c0,0,3.294-3.3,3.299-3.306	C17.111,13.07,17.5,12.232,17.5,11.3z" clip-rule="evenodd"/></svg>